<mxfile host="app.diagrams.net" modified="2024-07-20T06:36:49.023Z" agent="Mozilla/5.0 (Windows NT 10.0; Win64; x64) AppleWebKit/537.36 (KHTML, like Gecko) Chrome/126.0.0.0 Safari/537.36" etag="2cGqT7pQaAfooHfA7aFb" version="24.7.2" type="google">
  <diagram name="Page-1" id="03018318-947c-dd8e-b7a3-06fadd420f32">
    <mxGraphModel grid="1" page="1" gridSize="10" guides="1" tooltips="1" connect="1" arrows="1" fold="1" pageScale="1" pageWidth="1100" pageHeight="850" background="none" math="0" shadow="0">
      <root>
        <mxCell id="0" />
        <mxCell id="1" parent="0" />
        <mxCell id="677b7b8949515195-1" value="" style="whiteSpace=wrap;html=1;rounded=0;shadow=0;labelBackgroundColor=none;strokeColor=#000000;strokeWidth=1;fillColor=none;fontFamily=Verdana;fontSize=12;fontColor=#000000;align=center;comic=1;" vertex="1" parent="1">
          <mxGeometry x="20" y="20" width="1060" height="890" as="geometry" />
        </mxCell>
        <mxCell id="A5OAw7b_6pUU53bdwAkw-11" value="" style="rounded=0;whiteSpace=wrap;html=1;fillColor=#e1d5e7;strokeColor=#9673a6;" vertex="1" parent="1">
          <mxGeometry x="20" y="20" width="1060" height="130" as="geometry" />
        </mxCell>
        <mxCell id="677b7b8949515195-2" value="LOGO" style="whiteSpace=wrap;html=1;rounded=0;shadow=0;labelBackgroundColor=none;strokeWidth=1;fontFamily=Verdana;fontSize=28;align=center;comic=1;" vertex="1" parent="1">
          <mxGeometry x="220" y="35" width="140" height="100" as="geometry" />
        </mxCell>
        <mxCell id="677b7b8949515195-9" value="" style="line;strokeWidth=1;html=1;rounded=0;shadow=0;labelBackgroundColor=none;fillColor=none;fontFamily=Verdana;fontSize=14;fontColor=#000000;align=center;comic=1;" vertex="1" parent="1">
          <mxGeometry x="20" y="140" width="1060" height="10" as="geometry" />
        </mxCell>
        <mxCell id="677b7b8949515195-11" value="Nav Link" style="text;html=1;points=[];align=left;verticalAlign=top;spacingTop=-4;fontSize=14;fontFamily=Verdana;fillColor=default;" vertex="1" parent="1">
          <mxGeometry x="400" y="75" width="70" height="20" as="geometry" />
        </mxCell>
        <mxCell id="677b7b8949515195-12" value="Nav Link" style="text;html=1;points=[];align=left;verticalAlign=top;spacingTop=-4;fontSize=14;fontFamily=Verdana;fillColor=default;" vertex="1" parent="1">
          <mxGeometry x="520" y="75" width="70" height="20" as="geometry" />
        </mxCell>
        <mxCell id="677b7b8949515195-13" value="Nav Link" style="text;html=1;points=[];align=left;verticalAlign=top;spacingTop=-4;fontSize=14;fontFamily=Verdana;fillColor=default;" vertex="1" parent="1">
          <mxGeometry x="630" y="75" width="70" height="20" as="geometry" />
        </mxCell>
        <mxCell id="677b7b8949515195-14" value="Nav Link" style="text;html=1;points=[];align=left;verticalAlign=top;spacingTop=-4;fontSize=14;fontFamily=Verdana;fillColor=default;" vertex="1" parent="1">
          <mxGeometry x="740" y="75" width="70" height="20" as="geometry" />
        </mxCell>
        <mxCell id="677b7b8949515195-15" value="&lt;div style=&quot;text-align: justify&quot;&gt;&lt;br&gt;&lt;/div&gt;" style="whiteSpace=wrap;html=1;rounded=0;shadow=0;labelBackgroundColor=none;strokeWidth=1;fillColor=none;fontFamily=Verdana;fontSize=12;align=center;verticalAlign=top;spacing=10;comic=1;" vertex="1" parent="1">
          <mxGeometry x="40" y="610" width="1020" height="217" as="geometry" />
        </mxCell>
        <mxCell id="677b7b8949515195-16" value="" style="verticalLabelPosition=bottom;shadow=0;dashed=0;align=center;html=1;verticalAlign=top;strokeWidth=1;shape=mxgraph.mockup.graphics.simpleIcon;strokeColor=#999999;rounded=0;labelBackgroundColor=none;fontFamily=Verdana;fontSize=14;fontColor=#000000;comic=1;" vertex="1" parent="1">
          <mxGeometry x="35" y="156" width="1030" height="444" as="geometry" />
        </mxCell>
        <mxCell id="A5OAw7b_6pUU53bdwAkw-2" value="&lt;font style=&quot;font-size: 15px;&quot;&gt;Footer Content Including Social Media Icons/Links&lt;/font&gt;" style="rounded=0;whiteSpace=wrap;html=1;fillColor=#e1d5e7;strokeColor=#9673a6;" vertex="1" parent="1">
          <mxGeometry x="30" y="840" width="1040" height="60" as="geometry" />
        </mxCell>
        <mxCell id="A5OAw7b_6pUU53bdwAkw-8" value="" style="verticalLabelPosition=bottom;shadow=0;dashed=0;align=center;html=1;verticalAlign=top;strokeWidth=1;shape=mxgraph.mockup.graphics.simpleIcon;strokeColor=#999999;" vertex="1" parent="1">
          <mxGeometry x="890" y="855" width="30" height="30" as="geometry" />
        </mxCell>
        <mxCell id="A5OAw7b_6pUU53bdwAkw-9" value="" style="verticalLabelPosition=bottom;shadow=0;dashed=0;align=center;html=1;verticalAlign=top;strokeWidth=1;shape=mxgraph.mockup.graphics.simpleIcon;strokeColor=#999999;" vertex="1" parent="1">
          <mxGeometry x="950" y="855" width="30" height="30" as="geometry" />
        </mxCell>
        <mxCell id="A5OAw7b_6pUU53bdwAkw-10" value="" style="verticalLabelPosition=bottom;shadow=0;dashed=0;align=center;html=1;verticalAlign=top;strokeWidth=1;shape=mxgraph.mockup.graphics.simpleIcon;strokeColor=#999999;" vertex="1" parent="1">
          <mxGeometry x="1010" y="855" width="30" height="30" as="geometry" />
        </mxCell>
        <mxCell id="A5OAw7b_6pUU53bdwAkw-12" value="" style="verticalLabelPosition=bottom;shadow=0;dashed=0;align=center;html=1;verticalAlign=top;strokeWidth=1;shape=mxgraph.mockup.containers.userMale;strokeColor=#666666;strokeColor2=#008cff;" vertex="1" parent="1">
          <mxGeometry x="120" y="620" width="160" height="140" as="geometry" />
        </mxCell>
        <mxCell id="A5OAw7b_6pUU53bdwAkw-13" value="" style="verticalLabelPosition=bottom;shadow=0;dashed=0;align=center;html=1;verticalAlign=top;strokeWidth=1;shape=mxgraph.mockup.containers.userFemale;strokeColor=#666666;strokeColor2=#008cff;" vertex="1" parent="1">
          <mxGeometry x="470" y="620" width="180" height="140" as="geometry" />
        </mxCell>
        <mxCell id="A5OAw7b_6pUU53bdwAkw-14" value="" style="verticalLabelPosition=bottom;shadow=0;dashed=0;align=center;html=1;verticalAlign=top;strokeWidth=1;shape=mxgraph.mockup.containers.userMale;strokeColor=#666666;strokeColor2=#008cff;" vertex="1" parent="1">
          <mxGeometry x="825" y="620" width="160" height="140" as="geometry" />
        </mxCell>
        <mxCell id="A5OAw7b_6pUU53bdwAkw-15" value="Caption" style="rounded=0;whiteSpace=wrap;html=1;" vertex="1" parent="1">
          <mxGeometry x="80" y="770" width="240" height="40" as="geometry" />
        </mxCell>
        <mxCell id="A5OAw7b_6pUU53bdwAkw-16" value="Caption" style="rounded=0;whiteSpace=wrap;html=1;" vertex="1" parent="1">
          <mxGeometry x="785" y="770" width="240" height="40" as="geometry" />
        </mxCell>
        <mxCell id="A5OAw7b_6pUU53bdwAkw-17" value="Caption" style="rounded=0;whiteSpace=wrap;html=1;" vertex="1" parent="1">
          <mxGeometry x="440" y="770" width="240" height="40" as="geometry" />
        </mxCell>
        <mxCell id="A5OAw7b_6pUU53bdwAkw-19" value="" style="rounded=0;whiteSpace=wrap;html=1;" vertex="1" parent="1">
          <mxGeometry x="55" y="160" width="495" height="430" as="geometry" />
        </mxCell>
        <mxCell id="A5OAw7b_6pUU53bdwAkw-20" value="&lt;font style=&quot;font-size: 28px;&quot;&gt;Contact Us&lt;/font&gt;" style="rounded=0;whiteSpace=wrap;html=1;align=center;" vertex="1" parent="1">
          <mxGeometry x="65" y="170" width="450" height="50" as="geometry" />
        </mxCell>
        <mxCell id="A5OAw7b_6pUU53bdwAkw-21" value="&lt;font style=&quot;font-size: 13px;&quot;&gt;Company Address:&lt;/font&gt;" style="rounded=0;whiteSpace=wrap;html=1;align=left;" vertex="1" parent="1">
          <mxGeometry x="65" y="230" width="370" height="30" as="geometry" />
        </mxCell>
        <mxCell id="A5OAw7b_6pUU53bdwAkw-22" value="&lt;font style=&quot;font-size: 13px;&quot;&gt;Phone Number:&lt;/font&gt;" style="rounded=0;whiteSpace=wrap;html=1;align=left;" vertex="1" parent="1">
          <mxGeometry x="65" y="260" width="370" height="30" as="geometry" />
        </mxCell>
        <mxCell id="A5OAw7b_6pUU53bdwAkw-23" value="&lt;font style=&quot;font-size: 13px;&quot;&gt;Email:&lt;/font&gt;" style="rounded=0;whiteSpace=wrap;html=1;align=left;" vertex="1" parent="1">
          <mxGeometry x="65" y="290" width="370" height="30" as="geometry" />
        </mxCell>
        <mxCell id="A5OAw7b_6pUU53bdwAkw-24" value="&lt;font style=&quot;font-size: 18px;&quot;&gt;Embedded Map&lt;/font&gt;" style="whiteSpace=wrap;html=1;aspect=fixed;" vertex="1" parent="1">
          <mxGeometry x="140" y="330" width="250" height="250" as="geometry" />
        </mxCell>
        <mxCell id="A5OAw7b_6pUU53bdwAkw-27" value="" style="rounded=0;whiteSpace=wrap;html=1;" vertex="1" parent="1">
          <mxGeometry x="560" y="160" width="500" height="430" as="geometry" />
        </mxCell>
        <mxCell id="A5OAw7b_6pUU53bdwAkw-28" value="&lt;font style=&quot;font-size: 28px;&quot;&gt;Form&lt;/font&gt;" style="rounded=0;whiteSpace=wrap;html=1;" vertex="1" parent="1">
          <mxGeometry x="640" y="170" width="360" height="50" as="geometry" />
        </mxCell>
        <mxCell id="A5OAw7b_6pUU53bdwAkw-29" value="&lt;font style=&quot;font-size: 13px;&quot;&gt;User&#39;s Name&lt;/font&gt;" style="rounded=0;whiteSpace=wrap;html=1;" vertex="1" parent="1">
          <mxGeometry x="570" y="230" width="480" height="40" as="geometry" />
        </mxCell>
        <mxCell id="A5OAw7b_6pUU53bdwAkw-30" value="&lt;font style=&quot;font-size: 13px;&quot;&gt;User&#39;s Email Address&lt;/font&gt;" style="rounded=0;whiteSpace=wrap;html=1;" vertex="1" parent="1">
          <mxGeometry x="570" y="270" width="480" height="40" as="geometry" />
        </mxCell>
        <mxCell id="A5OAw7b_6pUU53bdwAkw-31" value="&lt;font style=&quot;font-size: 13px;&quot;&gt;Purpose of Message w/radio buttons&lt;/font&gt;" style="rounded=0;whiteSpace=wrap;html=1;" vertex="1" parent="1">
          <mxGeometry x="570" y="310" width="480" height="40" as="geometry" />
        </mxCell>
        <mxCell id="A5OAw7b_6pUU53bdwAkw-33" value="&lt;font style=&quot;font-size: 13px;&quot;&gt;Radio Button 1&lt;/font&gt;" style="rounded=0;whiteSpace=wrap;html=1;" vertex="1" parent="1">
          <mxGeometry x="570" y="350" width="160" height="60" as="geometry" />
        </mxCell>
        <mxCell id="A5OAw7b_6pUU53bdwAkw-34" value="&lt;font style=&quot;font-size: 13px;&quot;&gt;Radio Button 2&lt;/font&gt;" style="rounded=0;whiteSpace=wrap;html=1;" vertex="1" parent="1">
          <mxGeometry x="730" y="350" width="160" height="60" as="geometry" />
        </mxCell>
        <mxCell id="A5OAw7b_6pUU53bdwAkw-35" value="&lt;font style=&quot;font-size: 13px;&quot;&gt;Radio Button 3&lt;/font&gt;" style="rounded=0;whiteSpace=wrap;html=1;" vertex="1" parent="1">
          <mxGeometry x="890" y="350" width="160" height="60" as="geometry" />
        </mxCell>
        <mxCell id="A5OAw7b_6pUU53bdwAkw-36" value="&lt;font style=&quot;font-size: 13px;&quot;&gt;Body of Message&lt;/font&gt;" style="rounded=0;whiteSpace=wrap;html=1;" vertex="1" parent="1">
          <mxGeometry x="570" y="410" width="480" height="90" as="geometry" />
        </mxCell>
        <mxCell id="A5OAw7b_6pUU53bdwAkw-37" value="&lt;font style=&quot;font-size: 13px;&quot;&gt;Checkbox: Subscribe me to monthly newsletter&lt;/font&gt;" style="rounded=0;whiteSpace=wrap;html=1;" vertex="1" parent="1">
          <mxGeometry x="570" y="500" width="480" height="60" as="geometry" />
        </mxCell>
        <mxCell id="A5OAw7b_6pUU53bdwAkw-38" value="&lt;font style=&quot;font-size: 16px;&quot;&gt;Submit&lt;/font&gt;" style="rounded=0;whiteSpace=wrap;html=1;fillColor=#dae8fc;strokeColor=#6c8ebf;" vertex="1" parent="1">
          <mxGeometry x="570" y="560" width="480" height="30" as="geometry" />
        </mxCell>
        <mxCell id="A5OAw7b_6pUU53bdwAkw-40" value="" style="shape=sumEllipse;perimeter=ellipsePerimeter;whiteSpace=wrap;html=1;backgroundOutline=1;" vertex="1" parent="1">
          <mxGeometry x="610" y="520" width="20" height="25" as="geometry" />
        </mxCell>
      </root>
    </mxGraphModel>
  </diagram>
</mxfile>
